<svg width="203" height="151" viewBox="0 0 203 151" fill="none" xmlns="http://www.w3.org/2000/svg">
<path d="M7.97 52.9561H22.32V1.78605H0.76V14.6661H7.97V52.9561ZM29.3003 26.6361C29.3003 41.9661 34.9003 52.6761 49.6003 52.6761C64.3003 52.6761 69.9703 41.9661 69.9703 26.6361C69.9703 11.5161 64.3003 0.736051 49.6003 0.736051C34.9003 0.736051 29.3003 11.5161 29.3003 26.6361ZM56.3903 26.6361C56.3903 33.9161 55.6903 39.7261 49.6003 39.7261C43.5103 39.7261 42.8103 33.9161 42.8103 26.6361C42.8103 19.5661 43.5103 13.6861 49.6003 13.6861C55.6903 13.6861 56.3903 19.5661 56.3903 26.6361ZM86.6462 10.9561V22.6461H75.3062V35.0361H86.6462V46.6561H99.8062V35.0361H111.076V22.6461H99.8062V10.9561H86.6462ZM5.77 83.7661V75.7561H1.57V97.9561H5.77V95.5861C6.79 97.0261 8.65 98.2261 11.26 98.2261C15.52 98.2261 18.85 94.7761 18.85 89.5861C18.85 84.3961 15.52 81.0661 11.26 81.0661C8.74 81.0661 6.79 82.2361 5.77 83.7661ZM14.56 89.5861C14.56 92.7361 12.43 94.5361 10.15 94.5361C7.9 94.5361 5.77 92.7961 5.77 89.6461C5.77 86.4961 7.9 84.7561 10.15 84.7561C12.43 84.7561 14.56 86.4361 14.56 89.5861ZM21.902 97.9561H26.102V81.3361H21.902V97.9561ZM24.032 79.3561C25.502 79.3561 26.612 78.2761 26.612 76.8961C26.612 75.5161 25.502 74.4361 24.032 74.4361C22.532 74.4361 21.452 75.5161 21.452 76.8961C21.452 78.2761 22.532 79.3561 24.032 79.3561ZM29.1716 89.5861C29.1716 94.7761 32.5316 98.2261 36.7616 98.2261C39.3716 98.2261 41.2616 96.9361 42.2516 95.4961V98.0761C42.2516 101.166 40.4516 102.486 38.1416 102.486C36.0416 102.486 34.4816 101.496 34.0616 99.9961H29.8916C30.3116 103.806 33.5816 106.146 38.2616 106.146C43.7216 106.146 46.4816 102.576 46.4816 98.0761V81.3361H42.2516V83.7061C41.2616 82.2661 39.3716 81.0661 36.7616 81.0661C32.5316 81.0661 29.1716 84.3961 29.1716 89.5861ZM42.2516 89.6461C42.2516 92.7961 40.1516 94.5361 37.8416 94.5361C35.5916 94.5361 33.4616 92.7361 33.4616 89.5861C33.4616 86.4361 35.5916 84.7561 37.8416 84.7561C40.1516 84.7561 42.2516 86.4961 42.2516 89.6461ZM56.6521 89.6461C56.6521 94.8661 60.0721 98.2261 64.8721 98.2261C69.0121 98.2261 71.8021 95.8861 72.7021 92.3461H68.1721C67.6621 93.8461 66.5821 94.6261 64.8421 94.6261C62.5021 94.6261 60.9421 92.8861 60.9421 89.6461C60.9421 86.4061 62.5021 84.6361 64.8421 84.6361C66.5821 84.6361 67.6921 85.5361 68.1721 86.9461H72.7021C71.8021 83.2261 69.0121 81.0661 64.8721 81.0661C60.0721 81.0661 56.6521 84.4261 56.6521 89.6461ZM91.829 89.6461C91.829 84.3961 88.079 81.0661 83.279 81.0661C78.479 81.0661 74.729 84.3961 74.729 89.6461C74.729 94.8661 78.359 98.2261 83.159 98.2261C87.989 98.2261 91.829 94.8661 91.829 89.6461ZM78.989 89.6461C78.989 86.3161 80.999 84.7261 83.219 84.7261C85.439 84.7261 87.509 86.3161 87.509 89.6461C87.509 92.9461 85.379 94.5661 83.159 94.5661C80.909 94.5661 78.989 92.9461 78.989 89.6461ZM118.16 97.9561H122.36V88.2061C122.36 83.6161 119.54 81.0961 115.55 81.0961C113.12 81.0961 110.93 82.3861 109.85 84.2761C108.71 82.2061 106.58 81.0961 104 81.0961C101.93 81.0961 100.16 81.9661 99.1098 83.3461V81.3361H94.9098V97.9561H99.1098V88.7761C99.1098 86.1361 100.58 84.7561 102.86 84.7561C105.08 84.7561 106.55 86.1361 106.55 88.7761V97.9561H110.75V88.7761C110.75 86.1361 112.22 84.7561 114.47 84.7561C116.69 84.7561 118.16 86.1361 118.16 88.7761V97.9561ZM130.545 83.7361V81.3361H126.345V105.876H130.545V95.5861C131.565 96.9361 133.425 98.2261 136.035 98.2261C140.295 98.2261 143.625 94.7761 143.625 89.5861C143.625 84.3961 140.295 81.0661 136.035 81.0661C133.455 81.0661 131.535 82.3261 130.545 83.7361ZM139.335 89.5861C139.335 92.7361 137.205 94.5361 134.925 94.5361C132.675 94.5361 130.545 92.7961 130.545 89.6461C130.545 86.4961 132.675 84.7561 134.925 84.7561C137.205 84.7561 139.335 86.4361 139.335 89.5861ZM145.597 89.5861C145.597 94.7761 148.957 98.2261 153.157 98.2261C155.797 98.2261 157.687 96.9661 158.677 95.5261V97.9561H162.907V81.3361H158.677V83.7061C157.687 82.3261 155.857 81.0661 153.187 81.0661C148.957 81.0661 145.597 84.3961 145.597 89.5861ZM158.677 89.6461C158.677 92.7961 156.577 94.5361 154.267 94.5361C152.017 94.5361 149.887 92.7361 149.887 89.5861C149.887 86.4361 152.017 84.7561 154.267 84.7561C156.577 84.7561 158.677 86.4961 158.677 89.6461ZM178.649 97.9561H182.849V88.2061C182.849 83.6161 180.089 81.0961 176.219 81.0961C174.089 81.0961 172.289 81.9961 171.209 83.4061V81.3361H167.009V97.9561H171.209V88.7761C171.209 86.1061 172.679 84.6661 174.959 84.6661C177.179 84.6661 178.649 86.1061 178.649 88.7761V97.9561ZM193.923 92.9461L189.633 81.3361H184.923L191.583 97.5361L187.983 105.816H192.453L202.743 81.3361H198.273L193.923 92.9461ZM5.77 128.736V126.336H1.57V150.876H5.77V140.586C6.79 141.936 8.65 143.226 11.26 143.226C15.52 143.226 18.85 139.776 18.85 134.586C18.85 129.396 15.52 126.066 11.26 126.066C8.68 126.066 6.76 127.326 5.77 128.736ZM14.56 134.586C14.56 137.736 12.43 139.536 10.15 139.536C7.9 139.536 5.77 137.796 5.77 134.646C5.77 131.496 7.9 129.756 10.15 129.756C12.43 129.756 14.56 131.436 14.56 134.586ZM20.822 134.586C20.822 139.776 24.182 143.226 28.382 143.226C31.022 143.226 32.912 141.966 33.902 140.526V142.956H38.132V126.336H33.902V128.706C32.912 127.326 31.082 126.066 28.412 126.066C24.182 126.066 20.822 129.396 20.822 134.586ZM33.902 134.646C33.902 137.796 31.802 139.536 29.492 139.536C27.242 139.536 25.112 137.736 25.112 134.586C25.112 131.436 27.242 129.756 29.492 129.756C31.802 129.756 33.902 131.496 33.902 134.646ZM46.4341 134.676C46.4341 131.466 47.9341 130.506 50.4241 130.506H51.5341V126.096C49.2241 126.096 47.4841 127.206 46.4341 128.916V126.336H42.2341V142.956H46.4341V134.676ZM55.023 137.796C55.023 141.606 57.153 142.956 60.333 142.956H62.973V139.416H61.023C59.703 139.416 59.253 138.936 59.253 137.826V129.786H62.973V126.336H59.253V122.226H55.023V126.336H53.043V129.786H55.023V137.796ZM77.6338 142.956H81.8338V133.206C81.8338 128.616 79.0738 126.096 75.2038 126.096C73.0738 126.096 71.2738 126.996 70.1938 128.406V126.336H65.9938V142.956H70.1938V133.776C70.1938 131.106 71.6638 129.666 73.9438 129.666C76.1638 129.666 77.6338 131.106 77.6338 133.776V142.956ZM92.9678 129.516C95.1278 129.516 96.8678 130.896 96.9278 133.086H89.0378C89.3678 130.806 90.9578 129.516 92.9678 129.516ZM100.858 137.736H96.3278C95.7878 138.846 94.7978 139.746 92.9978 139.746C90.8978 139.746 89.2178 138.366 89.0078 135.906H101.158C101.248 135.366 101.278 134.826 101.278 134.286C101.278 129.336 97.8878 126.066 93.0878 126.066C88.1678 126.066 84.7478 129.396 84.7478 134.646C84.7478 139.866 88.2578 143.226 93.0878 143.226C97.1978 143.226 99.9578 140.796 100.858 137.736ZM108.543 134.676C108.543 131.466 110.043 130.506 112.533 130.506H113.643V126.096C111.333 126.096 109.593 127.206 108.543 128.916V126.336H104.343V142.956H108.543V134.676ZM129.372 138.216C129.252 132.126 120.042 134.016 120.042 130.986C120.042 130.026 120.852 129.396 122.412 129.396C124.062 129.396 125.082 130.266 125.202 131.556H129.222C128.982 128.256 126.552 126.066 122.532 126.066C118.422 126.066 115.962 128.286 115.962 131.046C115.962 137.136 125.352 135.246 125.352 138.216C125.352 139.176 124.452 139.926 122.802 139.926C121.122 139.926 119.952 138.966 119.802 137.706H115.572C115.752 140.796 118.662 143.226 122.832 143.226C126.882 143.226 129.372 141.066 129.372 138.216ZM132.82 142.956H137.02V133.776C137.02 131.106 138.49 129.666 140.77 129.666C142.99 129.666 144.46 131.106 144.46 133.776V142.956H148.66V133.206C148.66 128.616 145.93 126.096 142.18 126.096C139.96 126.096 138.1 126.996 137.02 128.406V120.756H132.82V142.956ZM152.654 142.956H156.854V126.336H152.654V142.956ZM154.784 124.356C156.254 124.356 157.364 123.276 157.364 121.896C157.364 120.516 156.254 119.436 154.784 119.436C153.284 119.436 152.204 120.516 152.204 121.896C152.204 123.276 153.284 124.356 154.784 124.356ZM165.204 128.736V126.336H161.004V150.876H165.204V140.586C166.224 141.936 168.084 143.226 170.694 143.226C174.954 143.226 178.284 139.776 178.284 134.586C178.284 129.396 174.954 126.066 170.694 126.066C168.114 126.066 166.194 127.326 165.204 128.736ZM173.994 134.586C173.994 137.736 171.864 139.536 169.584 139.536C167.334 139.536 165.204 137.796 165.204 134.646C165.204 131.496 167.334 129.756 169.584 129.756C171.864 129.756 173.994 131.436 173.994 134.586Z" fill="#58A9A5"/>
</svg>
