<svg width="116" height="144" viewBox="0 0 116 144" fill="none" xmlns="http://www.w3.org/2000/svg">
<path d="M7.97 52.9561H22.32V1.78605H0.76V14.6661H7.97V52.9561ZM29.3003 26.6361C29.3003 41.9661 34.9003 52.6761 49.6003 52.6761C64.3003 52.6761 69.9703 41.9661 69.9703 26.6361C69.9703 11.5161 64.3003 0.736051 49.6003 0.736051C34.9003 0.736051 29.3003 11.5161 29.3003 26.6361ZM56.3903 26.6361C56.3903 33.9161 55.6903 39.7261 49.6003 39.7261C43.5103 39.7261 42.8103 33.9161 42.8103 26.6361C42.8103 19.5661 43.5103 13.6861 49.6003 13.6861C55.6903 13.6861 56.3903 19.5661 56.3903 26.6361ZM79.0862 1.78605V32.7261H92.4562C92.7362 30.9761 94.2062 29.4361 96.8662 29.4361C100.156 29.4361 102.046 31.3261 102.046 35.0361C102.046 38.6061 100.506 41.1961 97.0762 41.1961C93.7162 41.1961 92.3862 39.0961 92.1762 37.2061H78.8062C78.8762 46.3761 85.7362 52.9561 97.6362 52.9561C108.836 52.9561 115.346 46.2361 115.346 35.2461C115.346 26.7061 110.866 18.5861 100.296 18.5861C96.5162 18.5861 93.2962 19.8461 91.5462 21.6661V13.8961H112.546V1.78605H79.0862ZM5.77 83.7361V81.3361H1.57V105.876H5.77V95.5861C6.79 96.9361 8.65 98.2261 11.26 98.2261C15.52 98.2261 18.85 94.7761 18.85 89.5861C18.85 84.3961 15.52 81.0661 11.26 81.0661C8.68 81.0661 6.76 82.3261 5.77 83.7361ZM14.56 89.5861C14.56 92.7361 12.43 94.5361 10.15 94.5361C7.9 94.5361 5.77 92.7961 5.77 89.6461C5.77 86.4961 7.9 84.7561 10.15 84.7561C12.43 84.7561 14.56 86.4361 14.56 89.5861ZM26.102 89.6761C26.102 86.4661 27.602 85.5061 30.092 85.5061H31.202V81.0961C28.892 81.0961 27.152 82.2061 26.102 83.9161V81.3361H21.902V97.9561H26.102V89.6761ZM50.0809 89.6461C50.0809 84.3961 46.3309 81.0661 41.5309 81.0661C36.7309 81.0661 32.9809 84.3961 32.9809 89.6461C32.9809 94.8661 36.6109 98.2261 41.4109 98.2261C46.2409 98.2261 50.0809 94.8661 50.0809 89.6461ZM37.2409 89.6461C37.2409 86.3161 39.2509 84.7261 41.4709 84.7261C43.6909 84.7261 45.7609 86.3161 45.7609 89.6461C45.7609 92.9461 43.6309 94.5661 41.4109 94.5661C39.1609 94.5661 37.2409 92.9461 37.2409 89.6461ZM55.2918 79.3561C56.7618 79.3561 57.8418 78.2761 57.8418 76.8961C57.8418 75.5161 56.7618 74.4361 55.2918 74.4361C53.7618 74.4361 52.6818 75.5161 52.6818 76.8961C52.6818 78.2761 53.7618 79.3561 55.2918 79.3561ZM53.1618 81.3361V100.716C53.1618 101.826 52.7118 102.306 51.4218 102.306H50.2218V105.876H52.0818C55.2918 105.876 57.3618 104.526 57.3618 100.686V81.3361H53.1618ZM68.6514 84.5161C70.8114 84.5161 72.5514 85.8961 72.6114 88.0861H64.7214C65.0514 85.8061 66.6414 84.5161 68.6514 84.5161ZM76.5414 92.7361H72.0114C71.4714 93.8461 70.4814 94.7461 68.6814 94.7461C66.5814 94.7461 64.9014 93.3661 64.6914 90.9061H76.8414C76.9314 90.3661 76.9614 89.8261 76.9614 89.2861C76.9614 84.3361 73.5714 81.0661 68.7714 81.0661C63.8514 81.0661 60.4314 84.3961 60.4314 89.6461C60.4314 94.8661 63.9414 98.2261 68.7714 98.2261C72.8814 98.2261 75.6414 95.7961 76.5414 92.7361ZM78.947 89.6461C78.947 94.8661 82.367 98.2261 87.167 98.2261C91.307 98.2261 94.097 95.8861 94.997 92.3461H90.467C89.957 93.8461 88.877 94.6261 87.137 94.6261C84.797 94.6261 83.237 92.8861 83.237 89.6461C83.237 86.4061 84.797 84.6361 87.137 84.6361C88.877 84.6361 89.987 85.5361 90.467 86.9461H94.997C94.097 83.2261 91.307 81.0661 87.167 81.0661C82.367 81.0661 78.947 84.4261 78.947 89.6461ZM98.7339 92.7961C98.7339 96.6061 100.864 97.9561 104.044 97.9561H106.684V94.4161H104.734C103.414 94.4161 102.964 93.9361 102.964 92.8261V84.7861H106.684V81.3361H102.964V77.2261H98.7339V81.3361H96.7539V84.7861H98.7339V92.7961ZM0.49 134.586C0.49 139.776 3.85 143.226 8.08 143.226C10.69 143.226 12.55 142.026 13.54 140.496V142.956H17.8V120.756H13.54V128.646C12.4 127.086 10.3 126.066 8.11 126.066C3.85 126.066 0.49 129.396 0.49 134.586ZM13.57 134.646C13.57 137.796 11.47 139.536 9.16 139.536C6.91 139.536 4.78 137.736 4.78 134.586C4.78 131.436 6.91 129.756 9.16 129.756C11.47 129.756 13.57 131.496 13.57 134.646ZM37.952 134.646C37.952 129.396 34.202 126.066 29.402 126.066C24.602 126.066 20.852 129.396 20.852 134.646C20.852 139.866 24.482 143.226 29.282 143.226C34.112 143.226 37.952 139.866 37.952 134.646ZM25.112 134.646C25.112 131.316 27.122 129.726 29.342 129.726C31.562 129.726 33.632 131.316 33.632 134.646C33.632 137.946 31.502 139.566 29.282 139.566C27.032 139.566 25.112 137.946 25.112 134.646ZM52.6729 142.956H56.8729V133.206C56.8729 128.616 54.1129 126.096 50.2429 126.096C48.1129 126.096 46.3129 126.996 45.2329 128.406V126.336H41.0329V142.956H45.2329V133.776C45.2329 131.106 46.7029 129.666 48.9829 129.666C51.2029 129.666 52.6729 131.106 52.6729 133.776V142.956ZM68.0069 129.516C70.1669 129.516 71.9069 130.896 71.9669 133.086H64.0769C64.4069 130.806 65.9969 129.516 68.0069 129.516ZM75.8969 137.736H71.3669C70.8269 138.846 69.8369 139.746 68.0369 139.746C65.9369 139.746 64.2569 138.366 64.0469 135.906H76.1969C76.2869 135.366 76.3169 134.826 76.3169 134.286C76.3169 129.336 72.9269 126.066 68.1269 126.066C63.2069 126.066 59.7869 129.396 59.7869 134.646C59.7869 139.866 63.2969 143.226 68.1269 143.226C72.2369 143.226 74.9969 140.796 75.8969 137.736Z" fill="#58A9A5"/>
</svg>
