<svg width="169" height="151" viewBox="0 0 169 151" fill="none" xmlns="http://www.w3.org/2000/svg">
<path d="M8.97 52.9561H23.32V1.78605H1.76V14.6661H8.97V52.9561ZM29.8803 52.2561H65.5803V41.1261H48.0803C56.2703 35.4561 65.0903 26.7061 65.0903 16.0661C65.0903 7.66605 60.2603 0.736051 48.0803 0.736051C38.6303 0.736051 30.1603 5.98605 29.7403 19.0061H43.0403C42.9003 14.4561 44.6503 12.2861 47.2403 12.2861C49.9003 12.2861 51.2303 14.1061 51.2303 17.0461C51.2303 25.0261 40.3103 33.7761 29.8803 41.9661V52.2561ZM9.65 92.9461L5.36 81.3361H0.65L7.31 97.5361L3.71 105.816H8.18L18.47 81.3361H14L9.65 92.9461ZM27.8741 84.5161C30.0341 84.5161 31.7741 85.8961 31.8341 88.0861H23.9441C24.2741 85.8061 25.8641 84.5161 27.8741 84.5161ZM35.7641 92.7361H31.2341C30.6941 93.8461 29.7041 94.7461 27.9041 94.7461C25.8041 94.7461 24.1241 93.3661 23.9141 90.9061H36.0641C36.1541 90.3661 36.1841 89.8261 36.1841 89.2861C36.1841 84.3361 32.7941 81.0661 27.9941 81.0661C23.0741 81.0661 19.6541 84.3961 19.6541 89.6461C19.6541 94.8661 23.1641 98.2261 27.9941 98.2261C32.1041 98.2261 34.8641 95.7961 35.7641 92.7361ZM38.1697 89.5861C38.1697 94.7761 41.5297 98.2261 45.7297 98.2261C48.3697 98.2261 50.2597 96.9661 51.2497 95.5261V97.9561H55.4797V81.3361H51.2497V83.7061C50.2597 82.3261 48.4297 81.0661 45.7597 81.0661C41.5297 81.0661 38.1697 84.3961 38.1697 89.5861ZM51.2497 89.6461C51.2497 92.7961 49.1497 94.5361 46.8397 94.5361C44.5897 94.5361 42.4597 92.7361 42.4597 89.5861C42.4597 86.4361 44.5897 84.7561 46.8397 84.7561C49.1497 84.7561 51.2497 86.4961 51.2497 89.6461ZM63.7817 89.6761C63.7817 86.4661 65.2817 85.5061 67.7717 85.5061H68.8817V81.0961C66.5717 81.0961 64.8317 82.2061 63.7817 83.9161V81.3361H59.5817V97.9561H63.7817V89.6761ZM84.6106 93.2161C84.4906 87.1261 75.2806 89.0161 75.2806 85.9861C75.2806 85.0261 76.0906 84.3961 77.6506 84.3961C79.3006 84.3961 80.3206 85.2661 80.4406 86.5561H84.4606C84.2206 83.2561 81.7906 81.0661 77.7706 81.0661C73.6606 81.0661 71.2006 83.2861 71.2006 86.0461C71.2006 92.1361 80.5906 90.2461 80.5906 93.2161C80.5906 94.1761 79.6906 94.9261 78.0406 94.9261C76.3606 94.9261 75.1906 93.9661 75.0406 92.7061H70.8106C70.9906 95.7961 73.9006 98.2261 78.0706 98.2261C82.1206 98.2261 84.6106 96.0661 84.6106 93.2161ZM111.257 89.6461C111.257 84.3961 107.507 81.0661 102.707 81.0661C97.9067 81.0661 94.1567 84.3961 94.1567 89.6461C94.1567 94.8661 97.7867 98.2261 102.587 98.2261C107.417 98.2261 111.257 94.8661 111.257 89.6461ZM98.4167 89.6461C98.4167 86.3161 100.427 84.7261 102.647 84.7261C104.867 84.7261 106.937 86.3161 106.937 89.6461C106.937 92.9461 104.807 94.5661 102.587 94.5661C100.337 94.5661 98.4167 92.9461 98.4167 89.6461ZM114.788 97.9561H119.048V84.7861H121.958V81.3361H119.048V80.6461C119.048 78.7861 119.738 78.1261 121.778 78.1861V74.6461C117.098 74.5261 114.788 76.4161 114.788 80.4961V81.3361H112.898V84.7861H114.788V97.9561ZM9.71 129.516C11.87 129.516 13.61 130.896 13.67 133.086H5.78C6.11 130.806 7.7 129.516 9.71 129.516ZM17.6 137.736H13.07C12.53 138.846 11.54 139.746 9.74 139.746C7.64 139.746 5.96 138.366 5.75 135.906H17.9C17.99 135.366 18.02 134.826 18.02 134.286C18.02 129.336 14.63 126.066 9.83 126.066C4.91 126.066 1.49 129.396 1.49 134.646C1.49 139.866 5 143.226 9.83 143.226C13.94 143.226 16.7 140.796 17.6 137.736ZM30.2656 142.956H35.0056L29.4856 134.616L34.9456 126.336H30.4456L27.3856 131.466L23.9956 126.336H19.2556L24.7456 134.616L19.3156 142.956H23.8156L26.8456 137.796L30.2656 142.956ZM41.4868 128.736V126.336H37.2868V150.876H41.4868V140.586C42.5068 141.936 44.3668 143.226 46.9768 143.226C51.2368 143.226 54.5668 139.776 54.5668 134.586C54.5668 129.396 51.2368 126.066 46.9768 126.066C44.3968 126.066 42.4768 127.326 41.4868 128.736ZM50.2768 134.586C50.2768 137.736 48.1468 139.536 45.8668 139.536C43.6168 139.536 41.4868 137.796 41.4868 134.646C41.4868 131.496 43.6168 129.756 45.8668 129.756C48.1468 129.756 50.2768 131.436 50.2768 134.586ZM64.7588 129.516C66.9188 129.516 68.6588 130.896 68.7188 133.086H60.8288C61.1588 130.806 62.7488 129.516 64.7588 129.516ZM72.6488 137.736H68.1188C67.5788 138.846 66.5888 139.746 64.7888 139.746C62.6888 139.746 61.0088 138.366 60.7988 135.906H72.9488C73.0388 135.366 73.0688 134.826 73.0688 134.286C73.0688 129.336 69.6788 126.066 64.8788 126.066C59.9588 126.066 56.5388 129.396 56.5388 134.646C56.5388 139.866 60.0488 143.226 64.8788 143.226C68.9888 143.226 71.7488 140.796 72.6488 137.736ZM80.3345 134.676C80.3345 131.466 81.8345 130.506 84.3245 130.506H85.4345V126.096C83.1245 126.096 81.3845 127.206 80.3345 128.916V126.336H76.1345V142.956H80.3345V134.676ZM88.2634 142.956H92.4634V126.336H88.2634V142.956ZM90.3934 124.356C91.8634 124.356 92.9734 123.276 92.9734 121.896C92.9734 120.516 91.8634 119.436 90.3934 119.436C88.8934 119.436 87.8134 120.516 87.8134 121.896C87.8134 123.276 88.8934 124.356 90.3934 124.356ZM103.753 129.516C105.913 129.516 107.653 130.896 107.713 133.086H99.823C100.153 130.806 101.743 129.516 103.753 129.516ZM111.643 137.736H107.113C106.573 138.846 105.583 139.746 103.783 139.746C101.683 139.746 100.003 138.366 99.793 135.906H111.943C112.033 135.366 112.063 134.826 112.063 134.286C112.063 129.336 108.673 126.066 103.873 126.066C98.953 126.066 95.533 129.396 95.533 134.646C95.533 139.866 99.043 143.226 103.873 143.226C107.983 143.226 110.743 140.796 111.643 137.736ZM126.769 142.956H130.969V133.206C130.969 128.616 128.209 126.096 124.339 126.096C122.209 126.096 120.409 126.996 119.329 128.406V126.336H115.129V142.956H119.329V133.776C119.329 131.106 120.799 129.666 123.079 129.666C125.299 129.666 126.769 131.106 126.769 133.776V142.956ZM133.883 134.646C133.883 139.866 137.303 143.226 142.103 143.226C146.243 143.226 149.033 140.886 149.933 137.346H145.403C144.893 138.846 143.813 139.626 142.073 139.626C139.733 139.626 138.173 137.886 138.173 134.646C138.173 131.406 139.733 129.636 142.073 129.636C143.813 129.636 144.923 130.536 145.403 131.946H149.933C149.033 128.226 146.243 126.066 142.103 126.066C137.303 126.066 133.883 129.426 133.883 134.646ZM160.149 129.516C162.309 129.516 164.049 130.896 164.109 133.086H156.219C156.549 130.806 158.139 129.516 160.149 129.516ZM168.039 137.736H163.509C162.969 138.846 161.979 139.746 160.179 139.746C158.079 139.746 156.399 138.366 156.189 135.906H168.339C168.429 135.366 168.459 134.826 168.459 134.286C168.459 129.336 165.069 126.066 160.269 126.066C155.349 126.066 151.929 129.396 151.929 134.646C151.929 139.866 155.439 143.226 160.269 143.226C164.379 143.226 167.139 140.796 168.039 137.736Z" fill="#58A9A5"/>
</svg>
