<svg width="430" height="59" viewBox="0 0 430 59" fill="none" xmlns="http://www.w3.org/2000/svg">
<path d="M0.683164 19.57H13.7032V58H27.4232V19.57H40.5832V8.65H0.683164V19.57ZM63.2993 29.09C66.4493 29.09 69.1793 30.98 69.1793 34.48H57.0693C57.6993 30.91 60.0093 29.09 63.2993 29.09ZM82.3393 44.42H67.7093C66.9393 46.03 65.4693 47.5 62.8093 47.5C59.7293 47.5 57.2793 45.68 56.9993 41.13H82.9693C83.1093 40.08 83.1793 38.96 83.1793 37.91C83.1793 25.73 74.9893 18.24 63.3693 18.24C51.6093 18.24 43.4193 25.87 43.4193 38.33C43.4193 50.86 51.7493 58.49 63.3693 58.49C73.1693 58.49 80.5193 52.47 82.3393 44.42ZM121.834 46.45C121.764 31.54 100.834 36.02 100.834 30.42C100.834 28.95 102.024 28.04 104.264 28.04C107.204 28.04 108.954 29.51 109.374 31.96H121.764C120.854 24.19 115.254 18.24 104.544 18.24C93.904 18.24 88.234 23.91 88.234 30.77C88.234 45.19 109.094 40.5 109.094 46.24C109.094 47.64 107.764 48.76 105.454 48.76C102.584 48.76 100.414 47.36 100.064 44.77H86.764C87.324 52.61 94.604 58.49 105.524 58.49C115.674 58.49 121.834 53.31 121.834 46.45ZM130.749 43.09C130.749 54.36 137.119 58 145.799 58H151.749V46.31H147.759C145.449 46.31 144.539 45.4 144.539 43.3V30.14H151.679V18.73H144.539V9.21H130.749V18.73H125.919V30.14H130.749V43.09ZM158.042 58H171.762V18.73H158.042V58ZM164.972 15.09C169.802 15.09 172.952 12.01 172.952 8.09C172.952 4.1 169.802 0.949996 164.972 0.949996C160.072 0.949996 156.922 4.1 156.922 8.09C156.922 12.01 160.072 15.09 164.972 15.09ZM233.055 58H246.775V35.11C246.775 24.82 240.825 18.38 230.885 18.38C225.075 18.38 220.455 21.6 217.795 25.59C215.205 21.04 210.585 18.38 204.705 18.38C199.385 18.38 195.535 20.76 193.295 23.91V18.73H179.575V58H193.295V36.93C193.295 32.66 195.815 30.28 199.875 30.28C203.795 30.28 206.315 32.66 206.315 36.93V58H220.035V36.93C220.035 32.66 222.555 30.28 226.545 30.28C230.465 30.28 233.055 32.66 233.055 36.93V58ZM293.212 38.33C293.212 25.87 284.322 18.24 272.632 18.24C260.942 18.24 252.052 25.87 252.052 38.33C252.052 50.86 260.872 58.49 272.562 58.49C284.252 58.49 293.212 50.86 293.212 38.33ZM266.052 38.33C266.052 32.73 269.132 30.14 272.632 30.14C276.132 30.14 279.282 32.73 279.282 38.33C279.282 44 276.062 46.59 272.562 46.59C268.992 46.59 266.052 44 266.052 38.33ZM325.534 58H339.254V35.11C339.254 24.82 333.584 18.38 324.484 18.38C318.954 18.38 314.824 20.97 312.514 24.33V18.73H298.794V58H312.514V36.93C312.514 32.38 315.034 29.72 319.094 29.72C323.014 29.72 325.534 32.38 325.534 36.93V58ZM346.782 58H360.502V18.73H346.782V58ZM353.712 15.09C358.542 15.09 361.692 12.01 361.692 8.09C361.692 4.1 358.542 0.949996 353.712 0.949996C348.812 0.949996 345.662 4.1 345.662 8.09C345.662 12.01 348.812 15.09 353.712 15.09ZM366.076 38.33C366.076 50.86 373.496 58.49 382.806 58.49C388.336 58.49 392.326 56.04 394.356 52.54V58H408.076V18.73H394.356V24.19C392.326 20.69 388.406 18.24 382.806 18.24C373.496 18.24 366.076 25.8 366.076 38.33ZM394.356 38.33C394.356 43.65 391.066 46.52 387.216 46.52C383.296 46.52 380.076 43.58 380.076 38.33C380.076 33.01 383.296 30.21 387.216 30.21C391.066 30.21 394.356 33.08 394.356 38.33ZM415.894 58H429.614V6.2H415.894V58Z" fill="#1C2323"/>
</svg>
